<svg width="41" height="41" viewBox="0 0 41 41" fill="none" xmlns="http://www.w3.org/2000/svg">
<path d="M35.0199 5.97295C31.2427 2.19574 26.1197 0.0737304 20.7779 0.0737305C15.4361 0.0737305 10.3131 2.19574 6.53594 5.97295C2.75873 9.75015 0.636719 14.8731 0.636719 20.2149C0.636719 25.5567 2.75873 30.6797 6.53594 34.4569C10.3131 38.2341 15.4361 40.3561 20.7779 40.3561C26.1197 40.3561 31.2427 38.2341 35.0199 34.4569C38.7971 30.6797 40.9191 25.5567 40.9191 20.2149C40.9191 14.8731 38.7971 9.75015 35.0199 5.97295ZM14.5807 36.0953V24.8628H26.9751V36.0953C22.9889 37.6446 18.5669 37.6446 14.5807 36.0953ZM32.8276 32.2646C31.99 33.104 31.067 33.8537 30.0737 34.5014V24.8628C30.0737 24.041 29.7473 23.2529 29.1662 22.6718C28.5851 22.0907 27.7969 21.7642 26.9751 21.7642V9.3698C26.9753 9.10557 26.9079 8.84569 26.7794 8.61485C26.6508 8.38401 26.4653 8.18989 26.2406 8.05093C26.0159 7.91198 25.7593 7.8328 25.4954 7.82094C25.2314 7.80908 24.9688 7.86493 24.7325 7.98317L15.4367 12.6311C15.1793 12.7599 14.9629 12.9578 14.8117 13.2028C14.6605 13.4477 14.5805 13.7299 14.5807 14.0177V21.7642C13.7589 21.7642 12.9707 22.0907 12.3896 22.6718C11.8085 23.2529 11.4821 24.041 11.4821 24.8628V34.5014C8.52966 32.5809 6.24481 29.7927 4.94181 26.5205C3.63881 23.2482 3.38166 19.6526 4.20574 16.2283C5.02982 12.8039 6.89464 9.71898 9.5437 7.3978C12.1928 5.07663 15.4959 3.63324 18.9989 3.26617C22.5018 2.89909 26.0325 3.62636 29.1052 5.34795C32.1779 7.06954 34.6417 9.70086 36.1578 12.88C37.6738 16.0591 38.1677 19.6299 37.5713 23.1012C36.975 26.5725 35.3178 29.7737 32.8276 32.2646Z" fill="#568B00"/>
</svg>
