<svg width="24" height="24" viewBox="0 0 24 24" fill="none" xmlns="http://www.w3.org/2000/svg">
<path d="M19.6495 0.839844C19.1461 0.841216 18.6479 0.942181 18.1837 1.13692C17.7194 1.33166 17.2983 1.61633 16.9446 1.97453L2.22579 16.6929L2.16808 16.9842L1.14979 22.1038L0.859375 23.4703L2.22672 23.1798L7.34614 22.1615L7.63655 22.1029L22.3553 7.38453C22.7146 7.03149 22.9999 6.61043 23.1947 6.14592C23.3895 5.68141 23.4898 5.18276 23.4898 4.67907C23.4898 4.17537 23.3895 3.67672 23.1947 3.21221C22.9999 2.7477 22.7146 2.32664 22.3553 1.9736C22.0014 1.61546 21.5801 1.3309 21.1157 1.13631C20.6513 0.94173 20.153 0.840972 19.6495 0.839844ZM19.6495 2.61401C20.1186 2.61401 20.5915 2.8281 21.0457 3.28328C21.9514 4.18805 21.9514 5.17008 21.0457 6.07578L20.3774 6.71527L17.6129 3.95162L18.2533 3.28328C18.7085 2.8281 19.1804 2.61401 19.6495 2.61401ZM16.3051 5.2613L19.0677 8.02495L7.81154 19.2806C7.20454 18.0911 6.23691 17.1241 5.04706 16.5179L16.3051 5.2613ZM3.85563 18.0314C4.40663 18.2529 4.90713 18.5835 5.32703 19.0034C5.74693 19.4233 6.07755 19.9238 6.29899 20.4748L3.24409 21.0855L3.85563 18.0314Z" fill="#C7C7C7"/>
</svg>
