<svg width="24" height="24" viewBox="0 0 24 24" fill="none" xmlns="http://www.w3.org/2000/svg">
<path d="M19.6456 0.840332C19.1422 0.841705 18.644 0.942669 18.1798 1.13741C17.7155 1.33215 17.2944 1.61682 16.9407 1.97502L2.22189 16.6934L2.16418 16.9847L1.14588 22.1043L0.855469 23.4708L2.22282 23.1803L7.34223 22.162L7.63264 22.1034L22.3514 7.38502C22.7107 7.03198 22.996 6.61092 23.1908 6.14641C23.3856 5.6819 23.4859 5.18325 23.4859 4.67956C23.4859 4.17586 23.3856 3.67721 23.1908 3.2127C22.996 2.74819 22.7107 2.32713 22.3514 1.97409C21.9975 1.61595 21.5762 1.33138 21.1118 1.1368C20.6474 0.942218 20.1491 0.84146 19.6456 0.840332ZM19.6456 2.6145C20.1147 2.6145 20.5876 2.82859 21.0418 3.28377C21.9475 4.18854 21.9475 5.17057 21.0418 6.07627L20.3735 6.71575L17.609 3.95211L18.2494 3.28377C18.7045 2.82859 19.1765 2.6145 19.6456 2.6145ZM16.3012 5.26179L19.0638 8.02544L7.80764 19.2811C7.20064 18.0916 6.233 17.1246 5.04315 16.5184L16.3012 5.26179ZM3.85172 18.0319C4.40272 18.2533 4.90322 18.584 5.32312 19.0039C5.74302 19.4238 6.07364 19.9243 6.29508 20.4753L3.24019 21.086L3.85172 18.0319Z" fill="black"/>
</svg>
