<svg width="76" height="90" viewBox="0 0 76 90" fill="none" xmlns="http://www.w3.org/2000/svg">
<path d="M41.4911 0.54541C41.6229 2.01303 41.6782 3.62638 41.6353 5.34205C43.5729 36.8097 64.5671 44.8634 75.4949 44.8854C75.5603 44.8851 75.6257 44.885 75.6913 44.885C75.6262 44.8854 75.5607 44.8856 75.4949 44.8854C49.0113 45.0129 41.8853 70.9171 41.3894 84.6854C41.4566 86.1449 41.4911 87.6573 41.4911 89.2245C41.3694 87.9531 41.3271 86.415 41.3894 84.6854C39.6837 47.6605 16.9328 44.6874 3.02703 44.8158C2.05114 44.8616 1.05206 44.885 0.0292969 44.885C0.96899 44.8531 1.97259 44.8255 3.02703 44.8158C33.2958 43.3952 41.2579 20.4182 41.6353 5.34205C41.5403 3.8 41.4911 2.20172 41.4911 0.54541Z" fill="black"/>
</svg>
