<svg width="131" height="111" viewBox="0 0 131 111" fill="none" xmlns="http://www.w3.org/2000/svg">
<path d="M51.8886 2C52.0506 3.80393 52.1186 5.78698 52.0658 7.8958C54.4475 46.5743 80.2525 56.4734 93.6844 56.5006C93.7647 56.5002 93.8452 56.5 93.9258 56.5C93.8458 56.5005 93.7653 56.5007 93.6844 56.5006C61.1321 56.6572 52.3731 88.4975 51.7635 105.421C51.8462 107.215 51.8886 109.074 51.8886 111C51.739 109.437 51.687 107.547 51.7635 105.421C49.6671 59.9116 21.7027 56.2572 4.61046 56.4149C3.41094 56.4712 2.18291 56.5 0.925781 56.5C2.08081 56.4608 3.31439 56.4269 4.61046 56.4149C41.8153 54.6688 51.6019 26.4267 52.0658 7.8958C51.9491 6.00039 51.8886 4.03586 51.8886 2Z" fill="black"/>
<path d="M103.353 0C103.459 1.17503 103.504 2.46675 103.469 3.84038C105.031 29.0347 121.957 35.4827 130.767 35.5004C130.82 35.5001 130.873 35.5 130.926 35.5C130.873 35.5004 130.821 35.5005 130.767 35.5004C109.416 35.6024 103.671 56.3424 103.271 67.3658C103.325 68.5343 103.353 69.7452 103.353 71C103.255 69.9821 103.221 68.7506 103.271 67.3658C101.896 37.7222 83.5537 35.3419 72.3426 35.4446C71.5558 35.4813 70.7504 35.5 69.9258 35.5C70.6834 35.4745 71.4925 35.4524 72.3426 35.4446C96.7458 34.3072 103.165 15.9109 103.469 3.84038C103.393 2.60576 103.353 1.32611 103.353 0Z" fill="black"/>
</svg>
