<svg width="31" height="31" viewBox="0 0 31 31" fill="none" xmlns="http://www.w3.org/2000/svg">
<path d="M29.0674 5.29133H22.9131V4.13897C22.9131 3.22209 22.5241 2.34277 21.8316 1.69444C21.1391 1.04611 20.1999 0.681885 19.2206 0.681885H11.8355C10.8561 0.681885 9.91692 1.04611 9.22444 1.69444C8.53195 2.34277 8.14291 3.22209 8.14291 4.13897V5.29133H1.98866C1.66222 5.29133 1.34915 5.41274 1.11832 5.62885C0.887491 5.84496 0.757813 6.13807 0.757812 6.44369C0.757813 6.74932 0.887491 7.04243 1.11832 7.25854C1.34915 7.47465 1.66222 7.59605 1.98866 7.59605H3.21951V28.3386C3.21951 28.9498 3.47887 29.536 3.94053 29.9682C4.40219 30.4005 5.02833 30.6433 5.68121 30.6433H25.3748C26.0277 30.6433 26.6538 30.4005 27.1155 29.9682C27.5772 29.536 27.8365 28.9498 27.8365 28.3386V7.59605H29.0674C29.3938 7.59605 29.7069 7.47465 29.9377 7.25854C30.1685 7.04243 30.2982 6.74932 30.2982 6.44369C30.2982 6.13807 30.1685 5.84496 29.9377 5.62885C29.7069 5.41274 29.3938 5.29133 29.0674 5.29133ZM10.6046 4.13897C10.6046 3.83334 10.7343 3.54024 10.9651 3.32413C11.196 3.10802 11.509 2.98661 11.8355 2.98661H19.2206C19.547 2.98661 19.8601 3.10802 20.0909 3.32413C20.3217 3.54024 20.4514 3.83334 20.4514 4.13897V5.29133H10.6046V4.13897ZM25.3748 28.3386H5.68121V7.59605H25.3748V28.3386ZM13.0663 13.3579V22.5768C13.0663 22.8824 12.9366 23.1755 12.7058 23.3916C12.475 23.6077 12.1619 23.7291 11.8355 23.7291C11.509 23.7291 11.196 23.6077 10.9651 23.3916C10.7343 23.1755 10.6046 22.8824 10.6046 22.5768V13.3579C10.6046 13.0522 10.7343 12.7591 10.9651 12.543C11.196 12.3269 11.509 12.2055 11.8355 12.2055C12.1619 12.2055 12.475 12.3269 12.7058 12.543C12.9366 12.7591 13.0663 13.0522 13.0663 13.3579ZM20.4514 13.3579V22.5768C20.4514 22.8824 20.3217 23.1755 20.0909 23.3916C19.8601 23.6077 19.547 23.7291 19.2206 23.7291C18.8941 23.7291 18.5811 23.6077 18.3502 23.3916C18.1194 23.1755 17.9897 22.8824 17.9897 22.5768V13.3579C17.9897 13.0522 18.1194 12.7591 18.3502 12.543C18.5811 12.3269 18.8941 12.2055 19.2206 12.2055C19.547 12.2055 19.8601 12.3269 20.0909 12.543C20.3217 12.7591 20.4514 13.0522 20.4514 13.3579Z" fill="black"/>
</svg>
